<svg xmlns="http://www.w3.org/2000/svg" width="340" height="200"><style>*{font-family:&apos;Segoe UI&apos;,Ubuntu,&quot;Helvetica Neue&quot;,Sans-Serif}</style><rect x="1" y="1" rx="5" ry="5" height="99%" width="99.412%" stroke="#000" fill="#242424" stroke-opacity="0"/><text x="30" y="40" font-size="22" fill="#ba5f17">Top Languages by Repo</text><path fill="#c6538c" stroke="#242424" d="M40 58h14v14H40z"/><path fill="#f1e05a" stroke="#242424" d="M40 83.2h14v14H40z"/><path fill="#563d7c" stroke="#242424" d="M40 108.4h14v14H40z"/><path fill="#e34c26" stroke="#242424" d="M40 133.6h14v14H40z"/><text x="16.8" y="30" fill="#bebebe" font-size="14" transform="translate(40 40)">SCSS</text><text x="16.8" y="55.2" fill="#bebebe" font-size="14" transform="translate(40 40)">JavaScript</text><text x="16.8" y="80.4" fill="#bebebe" font-size="14" transform="translate(40 40)">CSS</text><text x="16.8" y="105.6" fill="#bebebe" font-size="14" transform="translate(40 40)">HTML</text><g stroke="#242424" stroke-width="2"><path d="M230 60a60 60 0 0151.962 90l-21.651-12.5A35 35 0 00230 85z" fill="#c6538c"/><path d="M281.962 150a60 60 0 01-103.924 0l21.651-12.5a35 35 0 0060.622 0z" fill="#f1e05a"/><path d="M178.038 150a60 60 0 0113.395-75.963l16.07 19.151a35 35 0 00-7.814 44.312z" fill="#563d7c"/><path d="M191.433 74.037A60 60 0 01230 60v25a35 35 0 00-22.498 8.188z" fill="#e34c26"/></g></svg>